<svg id="visual" viewBox="0 0 900 600" width="900" height="600" xmlns="http://www.w3.org/2000/svg" xmlns:xlink="http://www.w3.org/1999/xlink" version="1.1"><rect x="0" y="0" width="900" height="600" fill="#4a94ef"></rect><defs><linearGradient id="grad1_0" x1="33.3%" y1="0%" x2="100%" y2="100%"><stop offset="20%" stop-color="#f0f2f5" stop-opacity="1"></stop><stop offset="80%" stop-color="#f0f2f5" stop-opacity="1"></stop></linearGradient></defs><defs><linearGradient id="grad1_1" x1="33.3%" y1="0%" x2="100%" y2="100%"><stop offset="20%" stop-color="#f0f2f5" stop-opacity="1"></stop><stop offset="80%" stop-color="#dae5f5" stop-opacity="1"></stop></linearGradient></defs><defs><linearGradient id="grad1_2" x1="33.3%" y1="0%" x2="100%" y2="100%"><stop offset="20%" stop-color="#c4d7f4" stop-opacity="1"></stop><stop offset="80%" stop-color="#dae5f5" stop-opacity="1"></stop></linearGradient></defs><defs><linearGradient id="grad1_3" x1="33.3%" y1="0%" x2="100%" y2="100%"><stop offset="20%" stop-color="#c4d7f4" stop-opacity="1"></stop><stop offset="80%" stop-color="#aecaf3" stop-opacity="1"></stop></linearGradient></defs><defs><linearGradient id="grad1_4" x1="33.3%" y1="0%" x2="100%" y2="100%"><stop offset="20%" stop-color="#98bcf3" stop-opacity="1"></stop><stop offset="80%" stop-color="#aecaf3" stop-opacity="1"></stop></linearGradient></defs><defs><linearGradient id="grad1_5" x1="33.3%" y1="0%" x2="100%" y2="100%"><stop offset="20%" stop-color="#98bcf3" stop-opacity="1"></stop><stop offset="80%" stop-color="#81aff2" stop-opacity="1"></stop></linearGradient></defs><defs><linearGradient id="grad1_6" x1="33.3%" y1="0%" x2="100%" y2="100%"><stop offset="20%" stop-color="#68a1f0" stop-opacity="1"></stop><stop offset="80%" stop-color="#81aff2" stop-opacity="1"></stop></linearGradient></defs><defs><linearGradient id="grad1_7" x1="33.3%" y1="0%" x2="100%" y2="100%"><stop offset="20%" stop-color="#68a1f0" stop-opacity="1"></stop><stop offset="80%" stop-color="#4a94ef" stop-opacity="1"></stop></linearGradient></defs><defs><linearGradient id="grad2_0" x1="0%" y1="0%" x2="66.7%" y2="100%"><stop offset="20%" stop-color="#f0f2f5" stop-opacity="1"></stop><stop offset="80%" stop-color="#f0f2f5" stop-opacity="1"></stop></linearGradient></defs><defs><linearGradient id="grad2_1" x1="0%" y1="0%" x2="66.7%" y2="100%"><stop offset="20%" stop-color="#dae5f5" stop-opacity="1"></stop><stop offset="80%" stop-color="#f0f2f5" stop-opacity="1"></stop></linearGradient></defs><defs><linearGradient id="grad2_2" x1="0%" y1="0%" x2="66.7%" y2="100%"><stop offset="20%" stop-color="#dae5f5" stop-opacity="1"></stop><stop offset="80%" stop-color="#c4d7f4" stop-opacity="1"></stop></linearGradient></defs><defs><linearGradient id="grad2_3" x1="0%" y1="0%" x2="66.7%" y2="100%"><stop offset="20%" stop-color="#aecaf3" stop-opacity="1"></stop><stop offset="80%" stop-color="#c4d7f4" stop-opacity="1"></stop></linearGradient></defs><defs><linearGradient id="grad2_4" x1="0%" y1="0%" x2="66.7%" y2="100%"><stop offset="20%" stop-color="#aecaf3" stop-opacity="1"></stop><stop offset="80%" stop-color="#98bcf3" stop-opacity="1"></stop></linearGradient></defs><defs><linearGradient id="grad2_5" x1="0%" y1="0%" x2="66.7%" y2="100%"><stop offset="20%" stop-color="#81aff2" stop-opacity="1"></stop><stop offset="80%" stop-color="#98bcf3" stop-opacity="1"></stop></linearGradient></defs><defs><linearGradient id="grad2_6" x1="0%" y1="0%" x2="66.7%" y2="100%"><stop offset="20%" stop-color="#81aff2" stop-opacity="1"></stop><stop offset="80%" stop-color="#68a1f0" stop-opacity="1"></stop></linearGradient></defs><defs><linearGradient id="grad2_7" x1="0%" y1="0%" x2="66.7%" y2="100%"><stop offset="20%" stop-color="#4a94ef" stop-opacity="1"></stop><stop offset="80%" stop-color="#68a1f0" stop-opacity="1"></stop></linearGradient></defs><g transform="translate(900, 0)"><path d="M0 459.7C-35.3 415.7 -70.6 371.6 -118 363.3C-165.5 355 -225.2 382.5 -270.2 371.9C-315.2 361.3 -345.5 312.7 -368.1 267.4C-390.7 222.2 -405.4 180.3 -419.4 136.3C-433.4 92.3 -446.5 46.1 -459.7 0L0 0Z" fill="#5a9bf0"></path><path d="M0 402.2C-30.9 363.7 -61.7 325.1 -103.3 317.9C-144.8 310.6 -197.1 334.7 -236.4 325.4C-275.8 316.2 -302.4 273.6 -322.1 234C-341.8 194.4 -354.8 157.8 -367 119.2C-379.2 80.7 -390.7 40.4 -402.2 0L0 0Z" fill="#75a8f1"></path><path d="M0 344.8C-26.5 311.7 -52.9 278.7 -88.5 272.5C-124.1 266.3 -168.9 286.9 -202.7 278.9C-236.4 271 -259.2 234.5 -276.1 200.6C-293 166.6 -304.1 135.2 -314.6 102.2C-325 69.2 -334.9 34.6 -344.8 0L0 0Z" fill="#8db5f2"></path><path d="M0 287.3C-22.1 259.8 -44.1 232.2 -73.8 227.1C-103.5 221.9 -140.8 239.1 -168.9 232.4C-197 225.8 -216 195.4 -230.1 167.2C-244.2 138.9 -253.4 112.7 -262.1 85.2C-270.9 57.7 -279.1 28.8 -287.3 0L0 0Z" fill="#a3c3f3"></path><path d="M0 229.9C-17.6 207.8 -35.3 185.8 -59 181.7C-82.8 177.5 -112.6 191.2 -135.1 186C-157.6 180.7 -172.8 156.4 -184.1 133.7C-195.3 111.1 -202.7 90.1 -209.7 68.1C-216.7 46.1 -223.3 23.1 -229.9 0L0 0Z" fill="#b9d0f4"></path><path d="M0 172.4C-13.2 155.9 -26.5 139.3 -44.3 136.2C-62.1 133.1 -84.5 143.4 -101.3 139.5C-118.2 135.5 -129.6 117.3 -138 100.3C-146.5 83.3 -152 67.6 -157.3 51.1C-162.5 34.6 -167.5 17.3 -172.4 0L0 0Z" fill="#cfdef4"></path><path d="M0 114.9C-8.8 103.9 -17.6 92.9 -29.5 90.8C-41.4 88.8 -56.3 95.6 -67.6 93C-78.8 90.3 -86.4 78.2 -92 66.9C-97.7 55.5 -101.4 45.1 -104.9 34.1C-108.3 23.1 -111.6 11.5 -114.9 0L0 0Z" fill="#e5ebf5"></path><path d="M0 57.5C-4.4 52 -8.8 46.4 -14.8 45.4C-20.7 44.4 -28.2 47.8 -33.8 46.5C-39.4 45.2 -43.2 39.1 -46 33.4C-48.8 27.8 -50.7 22.5 -52.4 17C-54.2 11.5 -55.8 5.8 -57.5 0L0 0Z" fill="#f0f2f5"></path></g><g transform="translate(0, 600)"><path d="M0 -459.7C40.8 -429.3 81.6 -398.8 124.8 -384.2C168.1 -369.6 213.9 -370.8 258.6 -356C303.3 -341.1 347 -310.2 371.9 -270.2C396.9 -230.3 403.1 -181.3 414.7 -134.7C426.2 -88.2 442.9 -44.1 459.7 0L0 0Z" fill="#5a9bf0"></path><path d="M0 -402.2C35.7 -375.6 71.4 -349 109.2 -336.2C147.1 -323.4 187.2 -324.5 226.3 -311.5C265.4 -298.5 303.6 -271.4 325.4 -236.4C347.3 -201.5 352.7 -158.6 362.8 -117.9C372.9 -77.2 387.6 -38.6 402.2 0L0 0Z" fill="#75a8f1"></path><path d="M0 -344.8C30.6 -322 61.2 -299.1 93.6 -288.2C126.1 -277.2 160.4 -278.1 194 -267C227.5 -255.8 260.2 -232.6 278.9 -202.7C297.6 -172.7 302.4 -136 311 -101C319.6 -66.1 332.2 -33.1 344.8 0L0 0Z" fill="#8db5f2"></path><path d="M0 -287.3C25.5 -268.3 51 -249.3 78 -240.1C105.1 -231 133.7 -231.8 161.6 -222.5C189.6 -213.2 216.8 -193.9 232.4 -168.9C248 -143.9 252 -113.3 259.2 -84.2C266.4 -55.1 276.8 -27.6 287.3 0L0 0Z" fill="#a3c3f3"></path><path d="M0 -229.9C20.4 -214.6 40.8 -199.4 62.4 -192.1C84.1 -184.8 107 -185.4 129.3 -178C151.7 -170.6 173.5 -155.1 186 -135.1C198.4 -115.1 201.6 -90.6 207.3 -67.4C213.1 -44.1 221.5 -22 229.9 0L0 0Z" fill="#b9d0f4"></path><path d="M0 -172.4C15.3 -161 30.6 -149.6 46.8 -144.1C63 -138.6 80.2 -139.1 97 -133.5C113.8 -127.9 130.1 -116.3 139.5 -101.3C148.8 -86.3 151.2 -68 155.5 -50.5C159.8 -33.1 166.1 -16.5 172.4 0L0 0Z" fill="#cfdef4"></path><path d="M0 -114.9C10.2 -107.3 20.4 -99.7 31.2 -96.1C42 -92.4 53.5 -92.7 64.7 -89C75.8 -85.3 86.7 -77.5 93 -67.6C99.2 -57.6 100.8 -45.3 103.7 -33.7C106.5 -22 110.7 -11 114.9 0L0 0Z" fill="#e5ebf5"></path><path d="M0 -57.5C5.1 -53.7 10.2 -49.9 15.6 -48C21 -46.2 26.7 -46.4 32.3 -44.5C37.9 -42.6 43.4 -38.8 46.5 -33.8C49.6 -28.8 50.4 -22.7 51.8 -16.8C53.3 -11 55.4 -5.5 57.5 0L0 0Z" fill="#f0f2f5"></path></g></svg>