<svg id="visual" viewBox="0 0 960 300" width="960" height="300" xmlns="http://www.w3.org/2000/svg" xmlns:xlink="http://www.w3.org/1999/xlink" version="1.1"><rect x="0" y="0" width="960" height="300" fill="#ffffff"></rect><path d="M0 108L22.8 105.3C45.7 102.7 91.3 97.3 137 96.2C182.7 95 228.3 98 274 102.7C319.7 107.3 365.3 113.7 411.2 120.7C457 127.7 503 135.3 548.8 138.2C594.7 141 640.3 139 686 139.2C731.7 139.3 777.3 141.7 823 135C868.7 128.3 914.3 112.7 937.2 104.8L960 97L960 301L937.2 301C914.3 301 868.7 301 823 301C777.3 301 731.7 301 686 301C640.3 301 594.7 301 548.8 301C503 301 457 301 411.2 301C365.3 301 319.7 301 274 301C228.3 301 182.7 301 137 301C91.3 301 45.7 301 22.8 301L0 301Z" fill="#bfdbfe"></path><path d="M0 132L22.8 132.5C45.7 133 91.3 134 137 134C182.7 134 228.3 133 274 129.7C319.7 126.3 365.3 120.7 411.2 126.2C457 131.7 503 148.3 548.8 156.3C594.7 164.3 640.3 163.7 686 160.3C731.7 157 777.3 151 823 143.5C868.7 136 914.3 127 937.2 122.5L960 118L960 301L937.2 301C914.3 301 868.7 301 823 301C777.3 301 731.7 301 686 301C640.3 301 594.7 301 548.8 301C503 301 457 301 411.2 301C365.3 301 319.7 301 274 301C228.3 301 182.7 301 137 301C91.3 301 45.7 301 22.8 301L0 301Z" fill="#a8cefd"></path><path d="M0 161L22.8 165.5C45.7 170 91.3 179 137 185C182.7 191 228.3 194 274 188.2C319.7 182.3 365.3 167.7 411.2 162.3C457 157 503 161 548.8 168.7C594.7 176.3 640.3 187.7 686 187C731.7 186.3 777.3 173.7 823 175.5C868.7 177.3 914.3 193.7 937.2 201.8L960 210L960 301L937.2 301C914.3 301 868.7 301 823 301C777.3 301 731.7 301 686 301C640.3 301 594.7 301 548.8 301C503 301 457 301 411.2 301C365.3 301 319.7 301 274 301C228.3 301 182.7 301 137 301C91.3 301 45.7 301 22.8 301L0 301Z" fill="#91c0fc"></path><path d="M0 221L22.8 224.2C45.7 227.3 91.3 233.7 137 233.8C182.7 234 228.3 228 274 228.3C319.7 228.7 365.3 235.3 411.2 237.5C457 239.7 503 237.3 548.8 231.3C594.7 225.3 640.3 215.7 686 215.2C731.7 214.7 777.3 223.3 823 222.3C868.7 221.3 914.3 210.7 937.2 205.3L960 200L960 301L937.2 301C914.3 301 868.7 301 823 301C777.3 301 731.7 301 686 301C640.3 301 594.7 301 548.8 301C503 301 457 301 411.2 301C365.3 301 319.7 301 274 301C228.3 301 182.7 301 137 301C91.3 301 45.7 301 22.8 301L0 301Z" fill="#79b3fb"></path><path d="M0 255L22.8 256.5C45.7 258 91.3 261 137 261.5C182.7 262 228.3 260 274 259.8C319.7 259.7 365.3 261.3 411.2 258.7C457 256 503 249 548.8 248.5C594.7 248 640.3 254 686 256.7C731.7 259.3 777.3 258.7 823 260.8C868.7 263 914.3 268 937.2 270.5L960 273L960 301L937.2 301C914.3 301 868.7 301 823 301C777.3 301 731.7 301 686 301C640.3 301 594.7 301 548.8 301C503 301 457 301 411.2 301C365.3 301 319.7 301 274 301C228.3 301 182.7 301 137 301C91.3 301 45.7 301 22.8 301L0 301Z" fill="#60a5fa"></path></svg>